<mxfile host="app.diagrams.net" modified="2023-05-25T20:55:45.940Z" agent="Mozilla/5.0 (Macintosh; Intel Mac OS X 10_15_7) AppleWebKit/537.36 (KHTML, like Gecko) Chrome/113.0.0.0 Safari/537.36" etag="2qFSlGCRRrjQTqSaKxfB" version="21.3.2" type="github">
  <diagram name="Page-1" id="wiH8RJTxxt9bn7Bjt54y">
    <mxGraphModel dx="1470" dy="997" grid="1" gridSize="10" guides="1" tooltips="1" connect="1" arrows="1" fold="1" page="1" pageScale="1" pageWidth="3300" pageHeight="4681" math="0" shadow="0">
      <root>
        <mxCell id="0" />
        <mxCell id="1" parent="0" />
        <mxCell id="42H_vZfmSr73_4d-cKj1-192" value="" style="rounded=0;whiteSpace=wrap;html=1;fillColor=#fff2cc;strokeColor=#d6b656;" vertex="1" parent="1">
          <mxGeometry x="70" y="20" width="160" height="530" as="geometry" />
        </mxCell>
        <mxCell id="42H_vZfmSr73_4d-cKj1-1" value="Observation on the ODB" style="rounded=0;whiteSpace=wrap;html=1;" vertex="1" parent="1">
          <mxGeometry x="90" y="60" width="120" height="60" as="geometry" />
        </mxCell>
        <mxCell id="42H_vZfmSr73_4d-cKj1-5" value="GMP" style="rounded=0;whiteSpace=wrap;html=1;" vertex="1" parent="1">
          <mxGeometry x="90" y="340" width="120" height="60" as="geometry" />
        </mxCell>
        <mxCell id="42H_vZfmSr73_4d-cKj1-6" value="Seqexec" style="rounded=0;whiteSpace=wrap;html=1;" vertex="1" parent="1">
          <mxGeometry x="90" y="210" width="120" height="60" as="geometry" />
        </mxCell>
        <mxCell id="42H_vZfmSr73_4d-cKj1-7" value="" style="endArrow=none;dashed=1;html=1;dashPattern=1 3;strokeWidth=2;rounded=0;" edge="1" parent="1">
          <mxGeometry width="50" height="50" relative="1" as="geometry">
            <mxPoint x="50" y="190" as="sourcePoint" />
            <mxPoint x="430" y="190" as="targetPoint" />
          </mxGeometry>
        </mxCell>
        <mxCell id="42H_vZfmSr73_4d-cKj1-8" value="Read sequence" style="endArrow=classic;startArrow=classic;html=1;rounded=0;exitX=0.5;exitY=0;exitDx=0;exitDy=0;fillColor=none;" edge="1" parent="1" source="42H_vZfmSr73_4d-cKj1-6">
          <mxGeometry width="50" height="50" relative="1" as="geometry">
            <mxPoint x="100" y="170" as="sourcePoint" />
            <mxPoint x="150" y="120" as="targetPoint" />
          </mxGeometry>
        </mxCell>
        <mxCell id="42H_vZfmSr73_4d-cKj1-9" value="Commands: APPLY, OBSERVE" style="endArrow=classic;startArrow=classic;html=1;rounded=0;exitX=0.5;exitY=0;exitDx=0;exitDy=0;" edge="1" parent="1" source="42H_vZfmSr73_4d-cKj1-5">
          <mxGeometry width="50" height="50" relative="1" as="geometry">
            <mxPoint x="100" y="320" as="sourcePoint" />
            <mxPoint x="150" y="270" as="targetPoint" />
          </mxGeometry>
        </mxCell>
        <mxCell id="42H_vZfmSr73_4d-cKj1-10" value="Instrument" style="rounded=0;whiteSpace=wrap;html=1;" vertex="1" parent="1">
          <mxGeometry x="90" y="470" width="120" height="60" as="geometry" />
        </mxCell>
        <mxCell id="42H_vZfmSr73_4d-cKj1-11" value="giapi" style="endArrow=classic;startArrow=classic;html=1;rounded=0;exitX=0.5;exitY=0;exitDx=0;exitDy=0;" edge="1" parent="1" source="42H_vZfmSr73_4d-cKj1-10">
          <mxGeometry width="50" height="50" relative="1" as="geometry">
            <mxPoint x="100" y="450" as="sourcePoint" />
            <mxPoint x="150" y="400" as="targetPoint" />
          </mxGeometry>
        </mxCell>
        <mxCell id="42H_vZfmSr73_4d-cKj1-12" value="Seq" style="ellipse;html=1;shape=startState;fillColor=#000000;strokeColor=#ff0000;" vertex="1" parent="1">
          <mxGeometry x="820" y="50" width="30" height="30" as="geometry" />
        </mxCell>
        <mxCell id="42H_vZfmSr73_4d-cKj1-13" value="" style="edgeStyle=orthogonalEdgeStyle;html=1;verticalAlign=bottom;endArrow=open;endSize=8;strokeColor=#ff0000;rounded=0;entryX=0.5;entryY=0;entryDx=0;entryDy=0;" edge="1" source="42H_vZfmSr73_4d-cKj1-12" parent="1" target="42H_vZfmSr73_4d-cKj1-14">
          <mxGeometry relative="1" as="geometry">
            <mxPoint x="825" y="140" as="targetPoint" />
          </mxGeometry>
        </mxCell>
        <mxCell id="42H_vZfmSr73_4d-cKj1-14" value="APPLY" style="rounded=0;whiteSpace=wrap;html=1;fillColor=#ffe6cc;strokeColor=#d79b00;" vertex="1" parent="1">
          <mxGeometry x="800" y="140" width="70" height="160" as="geometry" />
        </mxCell>
        <mxCell id="42H_vZfmSr73_4d-cKj1-15" value="OBSERVE" style="rounded=0;whiteSpace=wrap;html=1;direction=west;fillColor=#d5e8d4;strokeColor=#82b366;" vertex="1" parent="1">
          <mxGeometry x="800" y="330" width="70" height="300" as="geometry" />
        </mxCell>
        <mxCell id="42H_vZfmSr73_4d-cKj1-16" value="1 Step" style="shape=curlyBracket;html=1;rounded=1;labelPosition=left;verticalLabelPosition=middle;align=right;verticalAlign=middle;" vertex="1" parent="1">
          <mxGeometry x="750" y="140" width="20" height="490" as="geometry" />
        </mxCell>
        <mxCell id="42H_vZfmSr73_4d-cKj1-17" value="Seqexec" style="text;strokeColor=none;fillColor=none;align=left;verticalAlign=middle;spacingLeft=4;spacingRight=4;overflow=hidden;points=[[0,0.5],[1,0.5]];portConstraint=eastwest;rotatable=0;whiteSpace=wrap;html=1;" vertex="1" parent="1">
          <mxGeometry x="810" y="20" width="80" height="30" as="geometry" />
        </mxCell>
        <mxCell id="42H_vZfmSr73_4d-cKj1-18" value="" style="endArrow=classic;html=1;rounded=0;" edge="1" parent="1">
          <mxGeometry width="50" height="50" relative="1" as="geometry">
            <mxPoint x="880" y="140" as="sourcePoint" />
            <mxPoint x="1020" y="140" as="targetPoint" />
          </mxGeometry>
        </mxCell>
        <mxCell id="42H_vZfmSr73_4d-cKj1-22" value="APPLY" style="edgeLabel;html=1;align=center;verticalAlign=middle;resizable=0;points=[];" vertex="1" connectable="0" parent="42H_vZfmSr73_4d-cKj1-18">
          <mxGeometry x="0.2923" y="-4" relative="1" as="geometry">
            <mxPoint x="-24" y="-14" as="offset" />
          </mxGeometry>
        </mxCell>
        <mxCell id="42H_vZfmSr73_4d-cKj1-20" style="edgeStyle=orthogonalEdgeStyle;rounded=0;orthogonalLoop=1;jettySize=auto;html=1;" edge="1" parent="1" source="42H_vZfmSr73_4d-cKj1-19">
          <mxGeometry relative="1" as="geometry">
            <mxPoint x="1025" y="140" as="targetPoint" />
          </mxGeometry>
        </mxCell>
        <mxCell id="42H_vZfmSr73_4d-cKj1-19" value="Seq" style="ellipse;html=1;shape=startState;fillColor=#000000;strokeColor=#ff0000;" vertex="1" parent="1">
          <mxGeometry x="1010" y="50" width="30" height="30" as="geometry" />
        </mxCell>
        <mxCell id="42H_vZfmSr73_4d-cKj1-21" value="GMP" style="text;strokeColor=none;fillColor=none;align=left;verticalAlign=middle;spacingLeft=4;spacingRight=4;overflow=hidden;points=[[0,0.5],[1,0.5]];portConstraint=eastwest;rotatable=0;whiteSpace=wrap;html=1;" vertex="1" parent="1">
          <mxGeometry x="1010" y="20" width="80" height="30" as="geometry" />
        </mxCell>
        <mxCell id="42H_vZfmSr73_4d-cKj1-23" value="" style="endArrow=classic;html=1;rounded=0;" edge="1" parent="1">
          <mxGeometry width="50" height="50" relative="1" as="geometry">
            <mxPoint x="1024.5" y="140" as="sourcePoint" />
            <mxPoint x="1024.5" y="300" as="targetPoint" />
          </mxGeometry>
        </mxCell>
        <mxCell id="42H_vZfmSr73_4d-cKj1-24" value="" style="endArrow=classic;html=1;rounded=0;entryX=1;entryY=1;entryDx=0;entryDy=0;" edge="1" parent="1" target="42H_vZfmSr73_4d-cKj1-14">
          <mxGeometry width="50" height="50" relative="1" as="geometry">
            <mxPoint x="1020" y="300" as="sourcePoint" />
            <mxPoint x="950" y="290" as="targetPoint" />
          </mxGeometry>
        </mxCell>
        <mxCell id="42H_vZfmSr73_4d-cKj1-25" value="COMPLETED" style="edgeLabel;html=1;align=center;verticalAlign=middle;resizable=0;points=[];" vertex="1" connectable="0" parent="42H_vZfmSr73_4d-cKj1-24">
          <mxGeometry x="0.48" y="4" relative="1" as="geometry">
            <mxPoint x="31" y="-14" as="offset" />
          </mxGeometry>
        </mxCell>
        <mxCell id="42H_vZfmSr73_4d-cKj1-26" value="" style="endArrow=classic;html=1;rounded=0;exitX=0.5;exitY=1;exitDx=0;exitDy=0;entryX=0.5;entryY=1;entryDx=0;entryDy=0;" edge="1" parent="1" source="42H_vZfmSr73_4d-cKj1-14" target="42H_vZfmSr73_4d-cKj1-15">
          <mxGeometry width="50" height="50" relative="1" as="geometry">
            <mxPoint x="900" y="340" as="sourcePoint" />
            <mxPoint x="950" y="290" as="targetPoint" />
          </mxGeometry>
        </mxCell>
        <mxCell id="42H_vZfmSr73_4d-cKj1-27" value="" style="endArrow=classic;html=1;rounded=0;" edge="1" parent="1">
          <mxGeometry width="50" height="50" relative="1" as="geometry">
            <mxPoint x="1024.5" y="330" as="sourcePoint" />
            <mxPoint x="1025" y="630" as="targetPoint" />
          </mxGeometry>
        </mxCell>
        <mxCell id="42H_vZfmSr73_4d-cKj1-28" value="" style="endArrow=classic;html=1;rounded=0;entryX=1;entryY=1;entryDx=0;entryDy=0;" edge="1" parent="1">
          <mxGeometry width="50" height="50" relative="1" as="geometry">
            <mxPoint x="1020" y="629" as="sourcePoint" />
            <mxPoint x="870" y="629" as="targetPoint" />
          </mxGeometry>
        </mxCell>
        <mxCell id="42H_vZfmSr73_4d-cKj1-29" value="COMPLETED" style="edgeLabel;html=1;align=center;verticalAlign=middle;resizable=0;points=[];" vertex="1" connectable="0" parent="42H_vZfmSr73_4d-cKj1-28">
          <mxGeometry x="0.48" y="4" relative="1" as="geometry">
            <mxPoint x="31" y="-14" as="offset" />
          </mxGeometry>
        </mxCell>
        <mxCell id="42H_vZfmSr73_4d-cKj1-30" value="" style="endArrow=classic;html=1;rounded=0;" edge="1" parent="1">
          <mxGeometry width="50" height="50" relative="1" as="geometry">
            <mxPoint x="880" y="330" as="sourcePoint" />
            <mxPoint x="1020" y="330" as="targetPoint" />
          </mxGeometry>
        </mxCell>
        <mxCell id="42H_vZfmSr73_4d-cKj1-31" value="OBSERVE" style="edgeLabel;html=1;align=center;verticalAlign=middle;resizable=0;points=[];" vertex="1" connectable="0" parent="42H_vZfmSr73_4d-cKj1-30">
          <mxGeometry x="0.2923" y="-4" relative="1" as="geometry">
            <mxPoint x="-24" y="-14" as="offset" />
          </mxGeometry>
        </mxCell>
        <mxCell id="42H_vZfmSr73_4d-cKj1-32" value="Configure Instrument" style="shape=curlyBracket;whiteSpace=wrap;html=1;rounded=1;flipH=1;labelPosition=right;verticalLabelPosition=middle;align=left;verticalAlign=middle;" vertex="1" parent="1">
          <mxGeometry x="1110" y="140" width="20" height="150" as="geometry" />
        </mxCell>
        <mxCell id="42H_vZfmSr73_4d-cKj1-33" value="Take an image" style="shape=curlyBracket;html=1;rounded=1;flipH=1;labelPosition=right;verticalLabelPosition=middle;align=left;verticalAlign=middle;" vertex="1" parent="1">
          <mxGeometry x="1110" y="330" width="20" height="300" as="geometry" />
        </mxCell>
        <mxCell id="42H_vZfmSr73_4d-cKj1-58" value="Seq" style="ellipse;html=1;shape=startState;fillColor=#000000;strokeColor=#ff0000;" vertex="1" parent="1">
          <mxGeometry x="1350" y="50" width="30" height="30" as="geometry" />
        </mxCell>
        <mxCell id="42H_vZfmSr73_4d-cKj1-59" value="" style="edgeStyle=orthogonalEdgeStyle;html=1;verticalAlign=bottom;endArrow=open;endSize=8;strokeColor=#ff0000;rounded=0;entryX=0.5;entryY=0;entryDx=0;entryDy=0;" edge="1" source="42H_vZfmSr73_4d-cKj1-58" target="42H_vZfmSr73_4d-cKj1-60" parent="1">
          <mxGeometry relative="1" as="geometry">
            <mxPoint x="1355" y="140" as="targetPoint" />
          </mxGeometry>
        </mxCell>
        <mxCell id="42H_vZfmSr73_4d-cKj1-60" value="APPLY" style="rounded=0;whiteSpace=wrap;html=1;fillColor=#ffe6cc;strokeColor=#d79b00;" vertex="1" parent="1">
          <mxGeometry x="1330" y="140" width="70" height="160" as="geometry" />
        </mxCell>
        <mxCell id="42H_vZfmSr73_4d-cKj1-61" value="OBSERVE" style="rounded=0;whiteSpace=wrap;html=1;direction=west;fillColor=#d5e8d4;strokeColor=#82b366;" vertex="1" parent="1">
          <mxGeometry x="1330" y="330" width="70" height="300" as="geometry" />
        </mxCell>
        <mxCell id="42H_vZfmSr73_4d-cKj1-62" value="1 Step" style="shape=curlyBracket;html=1;rounded=1;labelPosition=left;verticalLabelPosition=middle;align=right;verticalAlign=middle;" vertex="1" parent="1">
          <mxGeometry x="1280" y="140" width="20" height="490" as="geometry" />
        </mxCell>
        <mxCell id="42H_vZfmSr73_4d-cKj1-63" value="Seqexec" style="text;strokeColor=none;fillColor=none;align=left;verticalAlign=middle;spacingLeft=4;spacingRight=4;overflow=hidden;points=[[0,0.5],[1,0.5]];portConstraint=eastwest;rotatable=0;whiteSpace=wrap;html=1;" vertex="1" parent="1">
          <mxGeometry x="1340" y="20" width="80" height="30" as="geometry" />
        </mxCell>
        <mxCell id="42H_vZfmSr73_4d-cKj1-64" value="" style="endArrow=classic;html=1;rounded=0;" edge="1" parent="1">
          <mxGeometry width="50" height="50" relative="1" as="geometry">
            <mxPoint x="1410" y="140" as="sourcePoint" />
            <mxPoint x="1550" y="140" as="targetPoint" />
          </mxGeometry>
        </mxCell>
        <mxCell id="42H_vZfmSr73_4d-cKj1-65" value="APPLY" style="edgeLabel;html=1;align=center;verticalAlign=middle;resizable=0;points=[];" vertex="1" connectable="0" parent="42H_vZfmSr73_4d-cKj1-64">
          <mxGeometry x="0.2923" y="-4" relative="1" as="geometry">
            <mxPoint x="-24" y="-14" as="offset" />
          </mxGeometry>
        </mxCell>
        <mxCell id="42H_vZfmSr73_4d-cKj1-66" style="edgeStyle=orthogonalEdgeStyle;rounded=0;orthogonalLoop=1;jettySize=auto;html=1;" edge="1" source="42H_vZfmSr73_4d-cKj1-67" parent="1">
          <mxGeometry relative="1" as="geometry">
            <mxPoint x="1555" y="140" as="targetPoint" />
          </mxGeometry>
        </mxCell>
        <mxCell id="42H_vZfmSr73_4d-cKj1-67" value="Seq" style="ellipse;html=1;shape=startState;fillColor=#000000;strokeColor=#ff0000;" vertex="1" parent="1">
          <mxGeometry x="1540" y="50" width="30" height="30" as="geometry" />
        </mxCell>
        <mxCell id="42H_vZfmSr73_4d-cKj1-68" value="GMP" style="text;strokeColor=none;fillColor=none;align=left;verticalAlign=middle;spacingLeft=4;spacingRight=4;overflow=hidden;points=[[0,0.5],[1,0.5]];portConstraint=eastwest;rotatable=0;whiteSpace=wrap;html=1;" vertex="1" parent="1">
          <mxGeometry x="1540" y="20" width="80" height="30" as="geometry" />
        </mxCell>
        <mxCell id="42H_vZfmSr73_4d-cKj1-69" value="" style="endArrow=classic;html=1;rounded=0;" edge="1" parent="1">
          <mxGeometry width="50" height="50" relative="1" as="geometry">
            <mxPoint x="1554.5" y="140" as="sourcePoint" />
            <mxPoint x="1554.5" y="300" as="targetPoint" />
          </mxGeometry>
        </mxCell>
        <mxCell id="42H_vZfmSr73_4d-cKj1-70" value="" style="endArrow=classic;html=1;rounded=0;entryX=1;entryY=1;entryDx=0;entryDy=0;" edge="1" target="42H_vZfmSr73_4d-cKj1-60" parent="1">
          <mxGeometry width="50" height="50" relative="1" as="geometry">
            <mxPoint x="1550" y="300" as="sourcePoint" />
            <mxPoint x="1480" y="290" as="targetPoint" />
          </mxGeometry>
        </mxCell>
        <mxCell id="42H_vZfmSr73_4d-cKj1-71" value="COMPLETED" style="edgeLabel;html=1;align=center;verticalAlign=middle;resizable=0;points=[];" vertex="1" connectable="0" parent="42H_vZfmSr73_4d-cKj1-70">
          <mxGeometry x="0.48" y="4" relative="1" as="geometry">
            <mxPoint x="31" y="-14" as="offset" />
          </mxGeometry>
        </mxCell>
        <mxCell id="42H_vZfmSr73_4d-cKj1-72" value="" style="endArrow=classic;html=1;rounded=0;exitX=0.5;exitY=1;exitDx=0;exitDy=0;entryX=0.5;entryY=1;entryDx=0;entryDy=0;" edge="1" source="42H_vZfmSr73_4d-cKj1-60" target="42H_vZfmSr73_4d-cKj1-61" parent="1">
          <mxGeometry width="50" height="50" relative="1" as="geometry">
            <mxPoint x="1430" y="340" as="sourcePoint" />
            <mxPoint x="1480" y="290" as="targetPoint" />
          </mxGeometry>
        </mxCell>
        <mxCell id="42H_vZfmSr73_4d-cKj1-73" value="" style="endArrow=classic;html=1;rounded=0;" edge="1" parent="1">
          <mxGeometry width="50" height="50" relative="1" as="geometry">
            <mxPoint x="1554.5" y="330" as="sourcePoint" />
            <mxPoint x="1555" y="630" as="targetPoint" />
          </mxGeometry>
        </mxCell>
        <mxCell id="42H_vZfmSr73_4d-cKj1-74" value="" style="endArrow=classic;html=1;rounded=0;entryX=1;entryY=1;entryDx=0;entryDy=0;" edge="1" parent="1">
          <mxGeometry width="50" height="50" relative="1" as="geometry">
            <mxPoint x="1550" y="629" as="sourcePoint" />
            <mxPoint x="1400" y="629" as="targetPoint" />
          </mxGeometry>
        </mxCell>
        <mxCell id="42H_vZfmSr73_4d-cKj1-75" value="COMPLETED" style="edgeLabel;html=1;align=center;verticalAlign=middle;resizable=0;points=[];" vertex="1" connectable="0" parent="42H_vZfmSr73_4d-cKj1-74">
          <mxGeometry x="0.48" y="4" relative="1" as="geometry">
            <mxPoint x="31" y="-14" as="offset" />
          </mxGeometry>
        </mxCell>
        <mxCell id="42H_vZfmSr73_4d-cKj1-76" value="" style="endArrow=classic;html=1;rounded=0;" edge="1" parent="1">
          <mxGeometry width="50" height="50" relative="1" as="geometry">
            <mxPoint x="1410" y="330" as="sourcePoint" />
            <mxPoint x="1550" y="330" as="targetPoint" />
          </mxGeometry>
        </mxCell>
        <mxCell id="42H_vZfmSr73_4d-cKj1-77" value="OBSERVE" style="edgeLabel;html=1;align=center;verticalAlign=middle;resizable=0;points=[];" vertex="1" connectable="0" parent="42H_vZfmSr73_4d-cKj1-76">
          <mxGeometry x="0.2923" y="-4" relative="1" as="geometry">
            <mxPoint x="-24" y="-14" as="offset" />
          </mxGeometry>
        </mxCell>
        <mxCell id="42H_vZfmSr73_4d-cKj1-80" value="" style="ellipse;html=1;shape=startState;fillColor=#000000;strokeColor=#ff0000;" vertex="1" parent="1">
          <mxGeometry x="1730" y="50" width="30" height="30" as="geometry" />
        </mxCell>
        <mxCell id="42H_vZfmSr73_4d-cKj1-81" value="" style="edgeStyle=orthogonalEdgeStyle;html=1;verticalAlign=bottom;endArrow=open;endSize=8;strokeColor=#ff0000;rounded=0;" edge="1" source="42H_vZfmSr73_4d-cKj1-80" parent="1">
          <mxGeometry relative="1" as="geometry">
            <mxPoint x="1745" y="170" as="targetPoint" />
          </mxGeometry>
        </mxCell>
        <mxCell id="42H_vZfmSr73_4d-cKj1-82" value="GOA" style="text;strokeColor=none;fillColor=none;align=left;verticalAlign=middle;spacingLeft=4;spacingRight=4;overflow=hidden;points=[[0,0.5],[1,0.5]];portConstraint=eastwest;rotatable=0;whiteSpace=wrap;html=1;" vertex="1" parent="1">
          <mxGeometry x="1730" y="20" width="80" height="30" as="geometry" />
        </mxCell>
        <mxCell id="42H_vZfmSr73_4d-cKj1-83" value="Guiding?" style="rounded=0;whiteSpace=wrap;html=1;fillColor=#ffe6cc;strokeColor=#d79b00;" vertex="1" parent="1">
          <mxGeometry x="1715" y="170" width="60" height="90" as="geometry" />
        </mxCell>
        <mxCell id="42H_vZfmSr73_4d-cKj1-84" value="" style="endArrow=classic;html=1;rounded=0;" edge="1" parent="1">
          <mxGeometry width="50" height="50" relative="1" as="geometry">
            <mxPoint x="1710" y="170" as="sourcePoint" />
            <mxPoint x="1560" y="170" as="targetPoint" />
          </mxGeometry>
        </mxCell>
        <mxCell id="42H_vZfmSr73_4d-cKj1-85" value="" style="endArrow=classic;html=1;rounded=0;" edge="1" parent="1">
          <mxGeometry width="50" height="50" relative="1" as="geometry">
            <mxPoint x="1570" y="260" as="sourcePoint" />
            <mxPoint x="1710" y="260" as="targetPoint" />
          </mxGeometry>
        </mxCell>
        <mxCell id="42H_vZfmSr73_4d-cKj1-87" value="COMPLETED" style="edgeLabel;html=1;align=center;verticalAlign=middle;resizable=0;points=[];" vertex="1" connectable="0" parent="42H_vZfmSr73_4d-cKj1-85">
          <mxGeometry x="0.3857" y="2" relative="1" as="geometry">
            <mxPoint x="-17" y="-8" as="offset" />
          </mxGeometry>
        </mxCell>
        <mxCell id="42H_vZfmSr73_4d-cKj1-86" value="APPLY" style="text;html=1;align=center;verticalAlign=middle;resizable=0;points=[];autosize=1;strokeColor=none;fillColor=none;" vertex="1" parent="1">
          <mxGeometry x="1610" y="140" width="60" height="30" as="geometry" />
        </mxCell>
        <mxCell id="42H_vZfmSr73_4d-cKj1-104" value="" style="group" vertex="1" connectable="0" parent="1">
          <mxGeometry x="80" y="820" width="280" height="550" as="geometry" />
        </mxCell>
        <mxCell id="42H_vZfmSr73_4d-cKj1-146" value="" style="rounded=0;whiteSpace=wrap;html=1;fillColor=#ffe6cc;strokeColor=#d79b00;dashed=1;" vertex="1" parent="42H_vZfmSr73_4d-cKj1-104">
          <mxGeometry x="190" y="160" width="50" height="70" as="geometry" />
        </mxCell>
        <mxCell id="42H_vZfmSr73_4d-cKj1-88" value="Seq" style="ellipse;html=1;shape=startState;fillColor=#000000;strokeColor=#ff0000;" vertex="1" parent="42H_vZfmSr73_4d-cKj1-104">
          <mxGeometry x="20" y="30" width="30" height="30" as="geometry" />
        </mxCell>
        <mxCell id="42H_vZfmSr73_4d-cKj1-89" value="" style="edgeStyle=orthogonalEdgeStyle;html=1;verticalAlign=bottom;endArrow=open;endSize=8;strokeColor=#ff0000;rounded=0;entryX=0.5;entryY=1;entryDx=0;entryDy=0;" edge="1" parent="42H_vZfmSr73_4d-cKj1-104" source="42H_vZfmSr73_4d-cKj1-88" target="42H_vZfmSr73_4d-cKj1-100">
          <mxGeometry relative="1" as="geometry">
            <mxPoint x="35" y="120" as="targetPoint" />
          </mxGeometry>
        </mxCell>
        <mxCell id="42H_vZfmSr73_4d-cKj1-90" value="Seqexec" style="text;strokeColor=none;fillColor=none;align=left;verticalAlign=middle;spacingLeft=4;spacingRight=4;overflow=hidden;points=[[0,0.5],[1,0.5]];portConstraint=eastwest;rotatable=0;whiteSpace=wrap;html=1;" vertex="1" parent="42H_vZfmSr73_4d-cKj1-104">
          <mxGeometry x="10" width="80" height="30" as="geometry" />
        </mxCell>
        <mxCell id="42H_vZfmSr73_4d-cKj1-96" value="" style="ellipse;html=1;shape=startState;fillColor=#000000;strokeColor=#ff0000;" vertex="1" parent="42H_vZfmSr73_4d-cKj1-104">
          <mxGeometry x="200" y="30" width="30" height="30" as="geometry" />
        </mxCell>
        <mxCell id="42H_vZfmSr73_4d-cKj1-97" value="" style="edgeStyle=orthogonalEdgeStyle;html=1;verticalAlign=bottom;endArrow=open;endSize=8;strokeColor=#ff0000;rounded=0;" edge="1" parent="42H_vZfmSr73_4d-cKj1-104" source="42H_vZfmSr73_4d-cKj1-96">
          <mxGeometry relative="1" as="geometry">
            <mxPoint x="215" y="110" as="targetPoint" />
          </mxGeometry>
        </mxCell>
        <mxCell id="42H_vZfmSr73_4d-cKj1-100" value="ID: 2" style="rounded=0;whiteSpace=wrap;html=1;direction=west;fillColor=#ffe6cc;strokeColor=#d79b00;" vertex="1" parent="42H_vZfmSr73_4d-cKj1-104">
          <mxGeometry y="210" width="70" height="90" as="geometry" />
        </mxCell>
        <mxCell id="42H_vZfmSr73_4d-cKj1-101" value="GOA" style="text;strokeColor=none;fillColor=none;align=left;verticalAlign=middle;spacingLeft=4;spacingRight=4;overflow=hidden;points=[[0,0.5],[1,0.5]];portConstraint=eastwest;rotatable=0;whiteSpace=wrap;html=1;" vertex="1" parent="42H_vZfmSr73_4d-cKj1-104">
          <mxGeometry x="200" width="80" height="30" as="geometry" />
        </mxCell>
        <mxCell id="42H_vZfmSr73_4d-cKj1-102" value="ID: 1" style="rounded=0;whiteSpace=wrap;html=1;fillColor=#ffe6cc;strokeColor=#d79b00;" vertex="1" parent="42H_vZfmSr73_4d-cKj1-104">
          <mxGeometry x="190" y="110" width="50" height="70" as="geometry" />
        </mxCell>
        <mxCell id="42H_vZfmSr73_4d-cKj1-103" value="" style="endArrow=classic;html=1;rounded=0;strokeColor=#FF0000;" edge="1" parent="42H_vZfmSr73_4d-cKj1-104">
          <mxGeometry width="50" height="50" relative="1" as="geometry">
            <mxPoint x="214.5" y="180" as="sourcePoint" />
            <mxPoint x="215" y="550" as="targetPoint" />
          </mxGeometry>
        </mxCell>
        <mxCell id="42H_vZfmSr73_4d-cKj1-118" value="ID: 3" style="rounded=0;whiteSpace=wrap;html=1;direction=west;fillColor=#d5e8d4;strokeColor=#82b366;" vertex="1" parent="42H_vZfmSr73_4d-cKj1-104">
          <mxGeometry y="300" width="70" height="250" as="geometry" />
        </mxCell>
        <mxCell id="42H_vZfmSr73_4d-cKj1-116" value="Base case" style="text;strokeColor=none;fillColor=none;html=1;fontSize=24;fontStyle=1;verticalAlign=middle;align=center;" vertex="1" parent="1">
          <mxGeometry x="160" y="770" width="100" height="40" as="geometry" />
        </mxCell>
        <mxCell id="42H_vZfmSr73_4d-cKj1-119" value="" style="group" vertex="1" connectable="0" parent="1">
          <mxGeometry x="440" y="820" width="280" height="550" as="geometry" />
        </mxCell>
        <mxCell id="42H_vZfmSr73_4d-cKj1-120" value="Seq" style="ellipse;html=1;shape=startState;fillColor=#000000;strokeColor=#ff0000;" vertex="1" parent="42H_vZfmSr73_4d-cKj1-119">
          <mxGeometry x="20" y="30" width="30" height="30" as="geometry" />
        </mxCell>
        <mxCell id="42H_vZfmSr73_4d-cKj1-121" value="" style="edgeStyle=orthogonalEdgeStyle;html=1;verticalAlign=bottom;endArrow=open;endSize=8;strokeColor=#ff0000;rounded=0;entryX=0.5;entryY=1;entryDx=0;entryDy=0;" edge="1" parent="42H_vZfmSr73_4d-cKj1-119" source="42H_vZfmSr73_4d-cKj1-120" target="42H_vZfmSr73_4d-cKj1-125">
          <mxGeometry relative="1" as="geometry">
            <mxPoint x="35" y="120" as="targetPoint" />
          </mxGeometry>
        </mxCell>
        <mxCell id="42H_vZfmSr73_4d-cKj1-122" value="Seqexec" style="text;strokeColor=none;fillColor=none;align=left;verticalAlign=middle;spacingLeft=4;spacingRight=4;overflow=hidden;points=[[0,0.5],[1,0.5]];portConstraint=eastwest;rotatable=0;whiteSpace=wrap;html=1;" vertex="1" parent="42H_vZfmSr73_4d-cKj1-119">
          <mxGeometry x="10" width="80" height="30" as="geometry" />
        </mxCell>
        <mxCell id="42H_vZfmSr73_4d-cKj1-123" value="" style="ellipse;html=1;shape=startState;fillColor=#000000;strokeColor=#ff0000;" vertex="1" parent="42H_vZfmSr73_4d-cKj1-119">
          <mxGeometry x="200" y="30" width="30" height="30" as="geometry" />
        </mxCell>
        <mxCell id="42H_vZfmSr73_4d-cKj1-124" value="" style="edgeStyle=orthogonalEdgeStyle;html=1;verticalAlign=bottom;endArrow=open;endSize=8;strokeColor=#ff0000;rounded=0;" edge="1" parent="42H_vZfmSr73_4d-cKj1-119" source="42H_vZfmSr73_4d-cKj1-123">
          <mxGeometry relative="1" as="geometry">
            <mxPoint x="215" y="240" as="targetPoint" />
          </mxGeometry>
        </mxCell>
        <mxCell id="42H_vZfmSr73_4d-cKj1-125" value="ID: 1" style="rounded=0;whiteSpace=wrap;html=1;direction=west;fillColor=#ffe6cc;strokeColor=#d79b00;" vertex="1" parent="42H_vZfmSr73_4d-cKj1-119">
          <mxGeometry y="210" width="70" height="90" as="geometry" />
        </mxCell>
        <mxCell id="42H_vZfmSr73_4d-cKj1-126" value="GOA" style="text;strokeColor=none;fillColor=none;align=left;verticalAlign=middle;spacingLeft=4;spacingRight=4;overflow=hidden;points=[[0,0.5],[1,0.5]];portConstraint=eastwest;rotatable=0;whiteSpace=wrap;html=1;" vertex="1" parent="42H_vZfmSr73_4d-cKj1-119">
          <mxGeometry x="200" width="80" height="30" as="geometry" />
        </mxCell>
        <mxCell id="42H_vZfmSr73_4d-cKj1-127" value="ID: 2" style="rounded=0;whiteSpace=wrap;html=1;fillColor=#ffe6cc;strokeColor=#d79b00;" vertex="1" parent="42H_vZfmSr73_4d-cKj1-119">
          <mxGeometry x="190" y="240" width="50" height="40" as="geometry" />
        </mxCell>
        <mxCell id="42H_vZfmSr73_4d-cKj1-128" value="" style="endArrow=classic;html=1;rounded=0;strokeColor=#FF0000;" edge="1" parent="42H_vZfmSr73_4d-cKj1-119">
          <mxGeometry width="50" height="50" relative="1" as="geometry">
            <mxPoint x="215" y="280" as="sourcePoint" />
            <mxPoint x="215" y="550" as="targetPoint" />
          </mxGeometry>
        </mxCell>
        <mxCell id="42H_vZfmSr73_4d-cKj1-129" value="ID: 3" style="rounded=0;whiteSpace=wrap;html=1;direction=west;fillColor=#d5e8d4;strokeColor=#82b366;" vertex="1" parent="42H_vZfmSr73_4d-cKj1-119">
          <mxGeometry y="300" width="70" height="250" as="geometry" />
        </mxCell>
        <mxCell id="42H_vZfmSr73_4d-cKj1-132" value="&lt;font style=&quot;font-size: 48px;&quot;&gt;☠&lt;/font&gt;" style="text;strokeColor=none;fillColor=none;html=1;fontSize=24;fontStyle=1;verticalAlign=middle;align=center;fontColor=#666666;" vertex="1" parent="42H_vZfmSr73_4d-cKj1-119">
          <mxGeometry x="120" y="255" width="100" height="40" as="geometry" />
        </mxCell>
        <mxCell id="42H_vZfmSr73_4d-cKj1-130" value="FR case" style="text;strokeColor=none;fillColor=none;html=1;fontSize=24;fontStyle=1;verticalAlign=middle;align=center;" vertex="1" parent="1">
          <mxGeometry x="520" y="770" width="100" height="40" as="geometry" />
        </mxCell>
        <mxCell id="42H_vZfmSr73_4d-cKj1-133" value="" style="group" vertex="1" connectable="0" parent="1">
          <mxGeometry x="1100" y="820" width="280" height="550" as="geometry" />
        </mxCell>
        <mxCell id="42H_vZfmSr73_4d-cKj1-134" value="Seq" style="ellipse;html=1;shape=startState;fillColor=#000000;strokeColor=#ff0000;" vertex="1" parent="42H_vZfmSr73_4d-cKj1-133">
          <mxGeometry x="20" y="30" width="30" height="30" as="geometry" />
        </mxCell>
        <mxCell id="42H_vZfmSr73_4d-cKj1-135" value="" style="edgeStyle=orthogonalEdgeStyle;html=1;verticalAlign=bottom;endArrow=open;endSize=8;strokeColor=#ff0000;rounded=0;entryX=0.5;entryY=1;entryDx=0;entryDy=0;" edge="1" parent="42H_vZfmSr73_4d-cKj1-133" source="42H_vZfmSr73_4d-cKj1-134" target="42H_vZfmSr73_4d-cKj1-139">
          <mxGeometry relative="1" as="geometry">
            <mxPoint x="35" y="120" as="targetPoint" />
          </mxGeometry>
        </mxCell>
        <mxCell id="42H_vZfmSr73_4d-cKj1-136" value="Seqexec" style="text;strokeColor=none;fillColor=none;align=left;verticalAlign=middle;spacingLeft=4;spacingRight=4;overflow=hidden;points=[[0,0.5],[1,0.5]];portConstraint=eastwest;rotatable=0;whiteSpace=wrap;html=1;" vertex="1" parent="42H_vZfmSr73_4d-cKj1-133">
          <mxGeometry x="10" width="80" height="30" as="geometry" />
        </mxCell>
        <mxCell id="42H_vZfmSr73_4d-cKj1-137" value="" style="ellipse;html=1;shape=startState;fillColor=#000000;strokeColor=#ff0000;" vertex="1" parent="42H_vZfmSr73_4d-cKj1-133">
          <mxGeometry x="200" y="30" width="30" height="30" as="geometry" />
        </mxCell>
        <mxCell id="42H_vZfmSr73_4d-cKj1-138" value="" style="edgeStyle=orthogonalEdgeStyle;html=1;verticalAlign=bottom;endArrow=open;endSize=8;strokeColor=#ff0000;rounded=0;" edge="1" parent="42H_vZfmSr73_4d-cKj1-133" source="42H_vZfmSr73_4d-cKj1-137">
          <mxGeometry relative="1" as="geometry">
            <mxPoint x="215" y="240" as="targetPoint" />
          </mxGeometry>
        </mxCell>
        <mxCell id="42H_vZfmSr73_4d-cKj1-139" value="ID: 1" style="rounded=0;whiteSpace=wrap;html=1;direction=west;fillColor=#ffe6cc;strokeColor=#d79b00;" vertex="1" parent="42H_vZfmSr73_4d-cKj1-133">
          <mxGeometry y="210" width="70" height="90" as="geometry" />
        </mxCell>
        <mxCell id="42H_vZfmSr73_4d-cKj1-140" value="GOA" style="text;strokeColor=none;fillColor=none;align=left;verticalAlign=middle;spacingLeft=4;spacingRight=4;overflow=hidden;points=[[0,0.5],[1,0.5]];portConstraint=eastwest;rotatable=0;whiteSpace=wrap;html=1;" vertex="1" parent="42H_vZfmSr73_4d-cKj1-133">
          <mxGeometry x="200" width="80" height="30" as="geometry" />
        </mxCell>
        <mxCell id="42H_vZfmSr73_4d-cKj1-141" value="ID: 2" style="rounded=0;whiteSpace=wrap;html=1;fillColor=#ffe6cc;strokeColor=#d79b00;" vertex="1" parent="42H_vZfmSr73_4d-cKj1-133">
          <mxGeometry x="190" y="240" width="50" height="90" as="geometry" />
        </mxCell>
        <mxCell id="42H_vZfmSr73_4d-cKj1-142" value="" style="endArrow=classic;html=1;rounded=0;strokeColor=#FF0000;" edge="1" parent="42H_vZfmSr73_4d-cKj1-133">
          <mxGeometry width="50" height="50" relative="1" as="geometry">
            <mxPoint x="215" y="330" as="sourcePoint" />
            <mxPoint x="215" y="550" as="targetPoint" />
          </mxGeometry>
        </mxCell>
        <mxCell id="42H_vZfmSr73_4d-cKj1-143" value="ID: 3" style="rounded=0;whiteSpace=wrap;html=1;direction=west;fillColor=#d5e8d4;strokeColor=#82b366;" vertex="1" parent="42H_vZfmSr73_4d-cKj1-133">
          <mxGeometry y="300" width="70" height="250" as="geometry" />
        </mxCell>
        <mxCell id="42H_vZfmSr73_4d-cKj1-161" value="Obs started before guiding" style="whiteSpace=wrap;html=1;rounded=1;arcSize=50;align=center;verticalAlign=middle;strokeWidth=1;autosize=1;spacing=4;treeFolding=1;treeMoving=1;newEdgeStyle={&quot;edgeStyle&quot;:&quot;entityRelationEdgeStyle&quot;,&quot;startArrow&quot;:&quot;none&quot;,&quot;endArrow&quot;:&quot;none&quot;,&quot;segment&quot;:10,&quot;curved&quot;:1,&quot;sourcePerimeterSpacing&quot;:0,&quot;targetPerimeterSpacing&quot;:0};" vertex="1" parent="42H_vZfmSr73_4d-cKj1-133">
          <mxGeometry x="20" y="370" width="190" height="30" as="geometry" />
        </mxCell>
        <mxCell id="42H_vZfmSr73_4d-cKj1-162" value="" style="edgeStyle=entityRelationEdgeStyle;startArrow=none;endArrow=none;segment=10;curved=1;sourcePerimeterSpacing=0;targetPerimeterSpacing=0;rounded=0;entryX=0.75;entryY=0;entryDx=0;entryDy=0;" edge="1" target="42H_vZfmSr73_4d-cKj1-161" parent="42H_vZfmSr73_4d-cKj1-133">
          <mxGeometry relative="1" as="geometry">
            <mxPoint x="70" y="300" as="sourcePoint" />
          </mxGeometry>
        </mxCell>
        <mxCell id="42H_vZfmSr73_4d-cKj1-145" value="Obs no guiding" style="text;strokeColor=none;fillColor=none;html=1;fontSize=24;fontStyle=1;verticalAlign=middle;align=center;" vertex="1" parent="1">
          <mxGeometry x="1180" y="770" width="100" height="40" as="geometry" />
        </mxCell>
        <mxCell id="42H_vZfmSr73_4d-cKj1-147" value="" style="group" vertex="1" connectable="0" parent="1">
          <mxGeometry x="780" y="820" width="280" height="550" as="geometry" />
        </mxCell>
        <mxCell id="42H_vZfmSr73_4d-cKj1-148" value="Seq" style="ellipse;html=1;shape=startState;fillColor=#000000;strokeColor=#ff0000;" vertex="1" parent="42H_vZfmSr73_4d-cKj1-147">
          <mxGeometry x="20" y="30" width="30" height="30" as="geometry" />
        </mxCell>
        <mxCell id="42H_vZfmSr73_4d-cKj1-149" value="" style="edgeStyle=orthogonalEdgeStyle;html=1;verticalAlign=bottom;endArrow=open;endSize=8;strokeColor=#ff0000;rounded=0;entryX=0.5;entryY=1;entryDx=0;entryDy=0;" edge="1" parent="42H_vZfmSr73_4d-cKj1-147" source="42H_vZfmSr73_4d-cKj1-148" target="42H_vZfmSr73_4d-cKj1-153">
          <mxGeometry relative="1" as="geometry">
            <mxPoint x="35" y="120" as="targetPoint" />
          </mxGeometry>
        </mxCell>
        <mxCell id="42H_vZfmSr73_4d-cKj1-150" value="Seqexec" style="text;strokeColor=none;fillColor=none;align=left;verticalAlign=middle;spacingLeft=4;spacingRight=4;overflow=hidden;points=[[0,0.5],[1,0.5]];portConstraint=eastwest;rotatable=0;whiteSpace=wrap;html=1;" vertex="1" parent="42H_vZfmSr73_4d-cKj1-147">
          <mxGeometry x="10" width="80" height="30" as="geometry" />
        </mxCell>
        <mxCell id="42H_vZfmSr73_4d-cKj1-151" value="" style="ellipse;html=1;shape=startState;fillColor=#000000;strokeColor=#ff0000;" vertex="1" parent="42H_vZfmSr73_4d-cKj1-147">
          <mxGeometry x="200" y="30" width="30" height="30" as="geometry" />
        </mxCell>
        <mxCell id="42H_vZfmSr73_4d-cKj1-152" value="" style="edgeStyle=orthogonalEdgeStyle;html=1;verticalAlign=bottom;endArrow=open;endSize=8;strokeColor=#ff0000;rounded=0;" edge="1" parent="42H_vZfmSr73_4d-cKj1-147" source="42H_vZfmSr73_4d-cKj1-151">
          <mxGeometry relative="1" as="geometry">
            <mxPoint x="215" y="340" as="targetPoint" />
          </mxGeometry>
        </mxCell>
        <mxCell id="42H_vZfmSr73_4d-cKj1-153" value="ID: 1" style="rounded=0;whiteSpace=wrap;html=1;direction=west;fillColor=#ffe6cc;strokeColor=#d79b00;" vertex="1" parent="42H_vZfmSr73_4d-cKj1-147">
          <mxGeometry y="210" width="70" height="90" as="geometry" />
        </mxCell>
        <mxCell id="42H_vZfmSr73_4d-cKj1-154" value="GOA" style="text;strokeColor=none;fillColor=none;align=left;verticalAlign=middle;spacingLeft=4;spacingRight=4;overflow=hidden;points=[[0,0.5],[1,0.5]];portConstraint=eastwest;rotatable=0;whiteSpace=wrap;html=1;" vertex="1" parent="42H_vZfmSr73_4d-cKj1-147">
          <mxGeometry x="200" width="80" height="30" as="geometry" />
        </mxCell>
        <mxCell id="42H_vZfmSr73_4d-cKj1-155" value="ID: 3" style="rounded=0;whiteSpace=wrap;html=1;fillColor=#ffe6cc;strokeColor=#d79b00;" vertex="1" parent="42H_vZfmSr73_4d-cKj1-147">
          <mxGeometry x="190" y="340" width="50" height="40" as="geometry" />
        </mxCell>
        <mxCell id="42H_vZfmSr73_4d-cKj1-156" value="" style="endArrow=classic;html=1;rounded=0;strokeColor=#FF0000;" edge="1" parent="42H_vZfmSr73_4d-cKj1-147">
          <mxGeometry width="50" height="50" relative="1" as="geometry">
            <mxPoint x="215" y="380" as="sourcePoint" />
            <mxPoint x="215" y="550" as="targetPoint" />
          </mxGeometry>
        </mxCell>
        <mxCell id="42H_vZfmSr73_4d-cKj1-157" value="ID: 2" style="rounded=0;whiteSpace=wrap;html=1;direction=west;fillColor=#d5e8d4;strokeColor=#82b366;" vertex="1" parent="42H_vZfmSr73_4d-cKj1-147">
          <mxGeometry y="300" width="70" height="250" as="geometry" />
        </mxCell>
        <mxCell id="42H_vZfmSr73_4d-cKj1-158" value="&lt;font style=&quot;font-size: 48px;&quot;&gt;☠&lt;/font&gt;" style="text;strokeColor=none;fillColor=none;html=1;fontSize=24;fontStyle=1;verticalAlign=middle;align=center;fontColor=#666666;" vertex="1" parent="42H_vZfmSr73_4d-cKj1-147">
          <mxGeometry x="120" y="360" width="100" height="40" as="geometry" />
        </mxCell>
        <mxCell id="42H_vZfmSr73_4d-cKj1-159" value="Obs interrupted" style="text;strokeColor=none;fillColor=none;html=1;fontSize=24;fontStyle=1;verticalAlign=middle;align=center;" vertex="1" parent="1">
          <mxGeometry x="860" y="770" width="100" height="40" as="geometry" />
        </mxCell>
        <mxCell id="42H_vZfmSr73_4d-cKj1-166" value="GOA" style="rounded=0;whiteSpace=wrap;html=1;dashed=1;" vertex="1" parent="1">
          <mxGeometry x="300" y="340" width="120" height="60" as="geometry" />
        </mxCell>
        <mxCell id="42H_vZfmSr73_4d-cKj1-167" value="" style="endArrow=classic;startArrow=classic;html=1;rounded=0;exitX=1;exitY=0.5;exitDx=0;exitDy=0;" edge="1" parent="1" source="42H_vZfmSr73_4d-cKj1-5">
          <mxGeometry width="50" height="50" relative="1" as="geometry">
            <mxPoint x="250" y="420" as="sourcePoint" />
            <mxPoint x="300" y="370" as="targetPoint" />
          </mxGeometry>
        </mxCell>
        <mxCell id="42H_vZfmSr73_4d-cKj1-168" value="Observation on the ODB" style="rounded=0;whiteSpace=wrap;html=1;" vertex="1" parent="1">
          <mxGeometry x="100" y="1470" width="120" height="60" as="geometry" />
        </mxCell>
        <mxCell id="42H_vZfmSr73_4d-cKj1-169" value="OT to edit" style="rounded=0;whiteSpace=wrap;html=1;fillColor=#ffe6cc;strokeColor=#d79b00;" vertex="1" parent="1">
          <mxGeometry x="350" y="1470" width="120" height="60" as="geometry" />
        </mxCell>
        <mxCell id="42H_vZfmSr73_4d-cKj1-170" value="" style="endArrow=classic;startArrow=classic;html=1;rounded=0;exitX=1;exitY=0.5;exitDx=0;exitDy=0;" edge="1" parent="1" source="42H_vZfmSr73_4d-cKj1-168">
          <mxGeometry width="50" height="50" relative="1" as="geometry">
            <mxPoint x="300" y="1550" as="sourcePoint" />
            <mxPoint x="350" y="1500" as="targetPoint" />
          </mxGeometry>
        </mxCell>
        <mxCell id="42H_vZfmSr73_4d-cKj1-171" value="Edit Observation" style="edgeLabel;html=1;align=center;verticalAlign=middle;resizable=0;points=[];" vertex="1" connectable="0" parent="42H_vZfmSr73_4d-cKj1-170">
          <mxGeometry x="-0.2308" y="1" relative="1" as="geometry">
            <mxPoint x="20" y="1" as="offset" />
          </mxGeometry>
        </mxCell>
        <mxCell id="42H_vZfmSr73_4d-cKj1-172" value="GMP" style="rounded=0;whiteSpace=wrap;html=1;" vertex="1" parent="1">
          <mxGeometry x="100" y="1750" width="120" height="60" as="geometry" />
        </mxCell>
        <mxCell id="42H_vZfmSr73_4d-cKj1-173" value="Seqexec" style="rounded=0;whiteSpace=wrap;html=1;" vertex="1" parent="1">
          <mxGeometry x="100" y="1620" width="120" height="60" as="geometry" />
        </mxCell>
        <mxCell id="42H_vZfmSr73_4d-cKj1-174" value="" style="endArrow=none;dashed=1;html=1;dashPattern=1 3;strokeWidth=2;rounded=0;" edge="1" parent="1">
          <mxGeometry width="50" height="50" relative="1" as="geometry">
            <mxPoint x="60" y="1600" as="sourcePoint" />
            <mxPoint x="660" y="1600" as="targetPoint" />
          </mxGeometry>
        </mxCell>
        <mxCell id="42H_vZfmSr73_4d-cKj1-175" value="Read sequence" style="endArrow=classic;startArrow=classic;html=1;rounded=0;exitX=0.5;exitY=0;exitDx=0;exitDy=0;" edge="1" parent="1" source="42H_vZfmSr73_4d-cKj1-173">
          <mxGeometry width="50" height="50" relative="1" as="geometry">
            <mxPoint x="110" y="1580" as="sourcePoint" />
            <mxPoint x="160" y="1530" as="targetPoint" />
          </mxGeometry>
        </mxCell>
        <mxCell id="42H_vZfmSr73_4d-cKj1-176" value="Commands: APPLY, OBSERVE" style="endArrow=classic;startArrow=classic;html=1;rounded=0;exitX=0.5;exitY=0;exitDx=0;exitDy=0;" edge="1" parent="1" source="42H_vZfmSr73_4d-cKj1-172">
          <mxGeometry width="50" height="50" relative="1" as="geometry">
            <mxPoint x="110" y="1730" as="sourcePoint" />
            <mxPoint x="160" y="1680" as="targetPoint" />
          </mxGeometry>
        </mxCell>
        <mxCell id="42H_vZfmSr73_4d-cKj1-177" value="Instrument" style="rounded=0;whiteSpace=wrap;html=1;" vertex="1" parent="1">
          <mxGeometry x="100" y="1880" width="120" height="60" as="geometry" />
        </mxCell>
        <mxCell id="42H_vZfmSr73_4d-cKj1-178" value="giapi" style="endArrow=classic;startArrow=classic;html=1;rounded=0;exitX=0.5;exitY=0;exitDx=0;exitDy=0;" edge="1" parent="1" source="42H_vZfmSr73_4d-cKj1-177">
          <mxGeometry width="50" height="50" relative="1" as="geometry">
            <mxPoint x="110" y="1860" as="sourcePoint" />
            <mxPoint x="160" y="1810" as="targetPoint" />
          </mxGeometry>
        </mxCell>
        <mxCell id="42H_vZfmSr73_4d-cKj1-181" value="Observation on the ODB" style="rounded=0;whiteSpace=wrap;html=1;" vertex="1" parent="1">
          <mxGeometry x="110" y="1480" width="120" height="60" as="geometry" />
        </mxCell>
        <mxCell id="42H_vZfmSr73_4d-cKj1-182" value="OT to edit" style="rounded=0;whiteSpace=wrap;html=1;fillColor=#ffe6cc;strokeColor=#d79b00;" vertex="1" parent="1">
          <mxGeometry x="360" y="1480" width="120" height="60" as="geometry" />
        </mxCell>
        <mxCell id="42H_vZfmSr73_4d-cKj1-183" value="" style="endArrow=classic;startArrow=classic;html=1;rounded=0;exitX=1;exitY=0.5;exitDx=0;exitDy=0;" edge="1" source="42H_vZfmSr73_4d-cKj1-181" parent="1">
          <mxGeometry width="50" height="50" relative="1" as="geometry">
            <mxPoint x="310" y="1560" as="sourcePoint" />
            <mxPoint x="360" y="1510" as="targetPoint" />
          </mxGeometry>
        </mxCell>
        <mxCell id="42H_vZfmSr73_4d-cKj1-184" value="Edit Observation" style="edgeLabel;html=1;align=center;verticalAlign=middle;resizable=0;points=[];" vertex="1" connectable="0" parent="42H_vZfmSr73_4d-cKj1-183">
          <mxGeometry x="-0.2308" y="1" relative="1" as="geometry">
            <mxPoint x="20" y="1" as="offset" />
          </mxGeometry>
        </mxCell>
        <mxCell id="42H_vZfmSr73_4d-cKj1-185" value="GMP" style="rounded=0;whiteSpace=wrap;html=1;" vertex="1" parent="1">
          <mxGeometry x="110" y="1760" width="120" height="60" as="geometry" />
        </mxCell>
        <mxCell id="42H_vZfmSr73_4d-cKj1-186" value="Seqexec" style="rounded=0;whiteSpace=wrap;html=1;" vertex="1" parent="1">
          <mxGeometry x="110" y="1630" width="120" height="60" as="geometry" />
        </mxCell>
        <mxCell id="42H_vZfmSr73_4d-cKj1-187" value="" style="endArrow=none;dashed=1;html=1;dashPattern=1 3;strokeWidth=2;rounded=0;" edge="1" parent="1">
          <mxGeometry width="50" height="50" relative="1" as="geometry">
            <mxPoint x="70" y="1610" as="sourcePoint" />
            <mxPoint x="670" y="1610" as="targetPoint" />
          </mxGeometry>
        </mxCell>
        <mxCell id="42H_vZfmSr73_4d-cKj1-188" value="Read sequence" style="endArrow=classic;startArrow=classic;html=1;rounded=0;exitX=0.5;exitY=0;exitDx=0;exitDy=0;" edge="1" source="42H_vZfmSr73_4d-cKj1-186" parent="1">
          <mxGeometry width="50" height="50" relative="1" as="geometry">
            <mxPoint x="120" y="1590" as="sourcePoint" />
            <mxPoint x="170" y="1540" as="targetPoint" />
          </mxGeometry>
        </mxCell>
        <mxCell id="42H_vZfmSr73_4d-cKj1-189" value="Commands: APPLY, OBSERVE" style="endArrow=classic;startArrow=classic;html=1;rounded=0;exitX=0.5;exitY=0;exitDx=0;exitDy=0;" edge="1" source="42H_vZfmSr73_4d-cKj1-185" parent="1">
          <mxGeometry width="50" height="50" relative="1" as="geometry">
            <mxPoint x="120" y="1740" as="sourcePoint" />
            <mxPoint x="170" y="1690" as="targetPoint" />
          </mxGeometry>
        </mxCell>
        <mxCell id="42H_vZfmSr73_4d-cKj1-190" value="Instrument" style="rounded=0;whiteSpace=wrap;html=1;" vertex="1" parent="1">
          <mxGeometry x="110" y="1890" width="120" height="60" as="geometry" />
        </mxCell>
        <mxCell id="42H_vZfmSr73_4d-cKj1-191" value="giapi" style="endArrow=classic;startArrow=classic;html=1;rounded=0;exitX=0.5;exitY=0;exitDx=0;exitDy=0;" edge="1" source="42H_vZfmSr73_4d-cKj1-190" parent="1">
          <mxGeometry width="50" height="50" relative="1" as="geometry">
            <mxPoint x="120" y="1870" as="sourcePoint" />
            <mxPoint x="170" y="1820" as="targetPoint" />
          </mxGeometry>
        </mxCell>
      </root>
    </mxGraphModel>
  </diagram>
</mxfile>
